<svg width="434" height="47" viewBox="0 0 434 47" fill="none" xmlns="http://www.w3.org/2000/svg">
<path d="M210.794 1.49485C183.802 -0.762021 131.222 3.62683 81.3705 12.297L69.6027 14.3464C36.5241 20.1168 18.655 24.1396 6.00006 28.6664C1.06093 30.4335 0.629276 30.6692 0.677007 31.5728C0.749641 32.8913 1.53617 32.7903 10.6331 30.2955C20.0465 27.7139 28.4285 26.0381 51.356 22.1543C127.985 9.17344 163.58 5.37868 203.086 5.98037C210.827 6.09766 223.06 7.82236 222.977 8.78463C222.866 10.0695 214.807 13.4656 196.258 20.0429C173.439 28.1342 159.495 33.6559 158.176 35.1221C155.921 37.6288 157.966 39.9084 162.785 40.2636C165.539 40.4667 166.171 40.4341 178.965 39.4164C215.698 36.4992 239.089 35.6282 270.655 36.0029C318.726 36.5742 349.226 38.4249 406.365 44.2397C426.897 46.3293 427.962 46.3902 431.846 45.6864L431.915 45.6744C433.161 45.454 433.502 43.6923 432.329 43.1384C429.308 41.7157 427.252 41.3964 409.451 39.5967C349.778 33.5625 318.273 31.6032 272.422 31.0797C248.309 30.8038 237.54 30.9537 219.89 31.8117C207.824 32.3982 175.925 34.5204 171.437 35.0341C168.989 35.3154 179.876 31.0971 198.938 24.3797C223.052 15.8811 227.924 13.357 228.307 9.1691C228.74 4.44682 224.646 2.65262 210.794 1.49485Z" fill="#FF3B30"/>
</svg>
